<svg xmlns="http://www.w3.org/2000/svg" width="73" height="65" viewBox="0 0 73 65" fill="none">
  <path d="M0.0157466 5.18987C-0.0328856 22.8354 0.0400627 64 0.113011 64.0506C0.234592 64.1772 36.7088 64.1266 40.3805 64C50.9337 63.6203 52.9033 63.443 55.9428 62.557C63.7969 60.3038 69.7057 54.9367 71.9185 48.0506C72.5264 46.1519 72.575 45.7215 72.5993 41.4684C72.5993 37.3671 72.5507 36.7342 72.0401 35.1646C70.8972 31.5949 69.2437 28.8608 66.7392 26.4051C64.7452 24.4557 62.8729 23.1139 62.1191 23.1139C61.5355 23.1139 59.2741 24.6329 59.2741 25.0127C59.2741 25.1646 60.1252 25.8734 61.1951 26.6076C63.4808 28.2025 64.5993 29.2911 66.0826 31.3418C67.42 33.1646 68.2954 34.962 68.7331 36.6582C69.1221 38.1519 69.1708 43.6962 68.8303 45.6709C68.4656 47.7722 66.8364 50.9367 65.1343 52.8861C61.0006 57.6456 55.8212 60.2025 49.2802 60.7342C46.1677 60.9873 6.99447 61.0127 5.04918 60.7595L3.39569 60.5317L3.46863 33.6203C3.51727 18.8101 3.61453 6.63291 3.7118 6.53165C4.02791 6.17722 10.496 9.64557 22.4595 16.5823C24.8668 17.9747 26.8364 19.0633 26.8851 19.0127C26.9337 18.962 27.0309 17.6203 27.1282 16.0253C27.2255 14.4304 27.3957 12.9873 27.5173 12.8608C27.6632 12.7089 30.0218 12.6076 33.6692 12.6329H39.5781L40.9398 13.3418C43.9063 14.8354 45.1708 17.8734 44.2224 21.1899C43.8577 22.4304 42.1556 24.3038 40.7696 24.9873C39.4322 25.6456 35.6389 25.8734 24.9398 25.9494L15.9428 26.0253L15.8699 41.1139L15.8212 56.2025L16.7939 56.3798C18.2528 56.6076 39.9428 56.5317 45.8516 56.2785C51.7118 56 52.9033 55.7468 56.1616 54.1013C59.2984 52.481 61.5355 50.2025 63.0188 47.0633L64.0887 44.8101V41.4684V38.1519L63.189 36.2785C61.6328 33.0127 59.9063 31.3165 56.2346 29.4177L54.4352 28.5063L51.8091 30.0506C50.3744 30.8861 48.9398 31.7722 48.6237 32L48.0401 32.4051L49.0127 32.9367C50.4717 33.6962 52.4413 36 52.7817 37.3165C53.1708 38.7848 52.9762 42.7342 52.4656 43.7468C52.0522 44.6076 50.034 46.6582 49.1343 47.1646C47.9185 47.8481 46.7027 47.9494 37.3167 48.1013C29.0978 48.2279 27.5416 48.2025 27.3471 47.8987C27.1525 47.5949 27.1039 30.7848 27.2984 30.5823C27.3471 30.5317 30.2164 30.4304 33.6936 30.3291C42.496 30.1013 43.2984 29.9747 46.5811 28.3038C51.0796 26.0506 53.2923 23.2911 54.0218 19.0886C54.727 14.8608 52.7088 10.4051 48.648 7.24051C46.9945 5.94937 43.9306 4.32912 41.8395 3.64557C39.1647 2.78481 36.9762 2.6076 26.2285 2.43038L15.8212 2.27848V4.3038C15.8212 6.81013 15.6267 7.92405 15.189 7.92405C14.7756 7.92405 11.8334 6.40506 5.24371 2.75949C2.56894 1.29114 0.30754 0.0759506 0.210276 0.0759506C0.088695 0.0759506 0.0157466 2.37975 0.0157466 5.18987Z" fill="black"/>
</svg>